<?xml version="1.0" encoding="UTF-8"?><svg id="a" xmlns="http://www.w3.org/2000/svg" xmlns:xlink="http://www.w3.org/1999/xlink" viewBox="0 0 1000 1000"><defs><style>.e{fill:url(#d);}.f{fill:url(#b);}.g{fill:url(#c);}.h{fill:#394d75;}</style><linearGradient id="b" x1="-412.1" y1="836.87" x2="-412.1" y2="816.62" gradientTransform="translate(2027.59 2804.94) scale(2.84 -2.84)" gradientUnits="userSpaceOnUse"><stop offset="0" stop-color="#55c3e9"/><stop offset="1" stop-color="#12528c"/></linearGradient><linearGradient id="c" x1="-404.92" y1="798.42" x2="-373.16" y2="798.42" gradientTransform="translate(2027.59 2804.94) scale(2.84 -2.84)" gradientUnits="userSpaceOnUse"><stop offset="0" stop-color="#e63527"/><stop offset="1" stop-color="#a01f1d"/></linearGradient><linearGradient id="d" x1="-403.68" y1="807.71" x2="-386.72" y2="808.04" gradientTransform="translate(2027.59 2804.94) scale(2.84 -2.84)" gradientUnits="userSpaceOnUse"><stop offset="0" stop-color="#e6ebf0"/><stop offset="1" stop-color="#95aab1"/></linearGradient></defs><path class="f" d="m818.14,426.46c16.22,0,26.74-2.49,38.59,11.24l38.76,47.88h-28.76c-6.49,0-13.91-1.86-19.95-12.07l-28.63-47.05Z"/><path class="g" d="m906.19,499.49l61.22,74.22h-42.91c-14.85,0-23.36-8.81-28.89-18.31l-18.42-31.32,5.33-16.47,23.66-8.11Z"/><path class="e" d="m881.33,531.5l-14.15-23.9c-4.11-7.41-.4-16.22,14.68-17.86,15.08-1.64,41.29-4.17,48.7,11.19-20.4-2.08-50.79,4.13-49.23,30.57Z"/><path class="h" d="m152.31,544.89v-29.54c0-9.7-3.52-14.82-10.15-14.82-4.59.16-8.59,3.17-9.99,7.54-.49,1.53-.73,3.12-.7,4.72v32.1h-12.49v-30.98c0-8.5-3.57-13.38-9.8-13.38-5.49,0-9.01,4.3-10.38,7.98-.47,1.53-.71,3.12-.7,4.72v31.66h-12.43v-37.64c0-6.06-.22-11.28-.43-15.71h10.82l.71,7.98h.99l.13-.22c3.35-5.81,9.63-9.31,16.34-9.09,6.44-.16,12.29,3.74,14.63,9.75l.12.29h.77l.13-.21c1.64-2.68,3.86-4.95,6.49-6.66,3.21-2.18,7.03-3.28,10.9-3.17,4.13,0,17.6,1.66,17.6,23.08v31.54l-12.55.05Zm48.8,1.12c-16.98,0-27.53-10.38-27.53-26.97,0-13.86,8.16-28.76,26.08-28.76,16.95,0,22.96,13.99,22.96,25.96.02,1.79-.11,3.58-.38,5.35h-36.42v.47c.36,10.67,9.09,14.47,17.16,14.47,5,.07,9.98-.72,14.72-2.32l1.82,8.51c-5.87,2.3-12.13,3.41-18.43,3.28h.03Zm-2.23-47.24c-9.2,0-12.53,8.58-12.98,13.65v.49h24.78v-.43c0-1.57-.13-6.98-3.69-10.62-2.12-2.11-5.03-3.23-8.02-3.1h-.09Zm33.43,46.14v-36.34c0-7.62-.12-12.62-.42-17.04h10.92l.56,10.25h1.08l.1-.3c2.39-6.8,8.09-11.19,14.51-11.19,1.14,0,1.87.09,5.01.26v11.92c-3.36-.17-4.49-.25-5.91-.25-6.49,0-11.4,4.11-12.69,10.72-.23,1.39-.35,2.81-.34,4.22v27.75h-12.82Zm87.82,1.12c-16.72,0-27.53-10.72-27.53-27.26s11.97-28.42,29.76-28.42c4.35,0,8.67.76,12.75,2.27l-2.25,9.46c-3.17-1.37-6.61-2.02-10.06-1.92-4.51-.15-8.89,1.54-12.12,4.69-3.37,3.6-5.15,8.39-4.95,13.32,0,10.73,6.85,17.94,17.05,17.94,3.58.04,7.14-.62,10.47-1.93l1.73,9.25c-4.75,1.8-9.8,2.68-14.87,2.6h.01Zm37.45.12c-10.9,0-16.6-7.9-16.6-15.72,0-12.98,11.11-20.05,31.28-20.05h.97v-1.3c0-3.71-1.49-9.93-11.47-9.93-5.02.01-9.96,1.31-14.34,3.78l-2.41-8.02c5.86-3.15,12.44-4.72,19.09-4.56,18.17,0,21.96,12.24,21.96,22.52v19.47c-.08,4.22.18,8.43.79,12.6h-11.45l-1.01-6.02h-.92l-.14.18c-3.43,4.49-9.09,7.06-15.69,7.06h-.05Zm14.74-27.76c-12.37,0-18.64,3.56-18.64,10.59,0,5.09,3.15,8.24,8.24,8.24,5.03.09,9.55-3.05,11.23-7.79.3-1.02.42-2.09.36-3.15v-7.92l-1.19.03Zm59.59,26.53v-30.2c0-9.09-3.89-14.16-10.81-14.16-5.1.12-9.57,3.46-11.12,8.32-.49,1.45-.72,2.97-.69,4.5v31.54h-12.82v-37.64c0-6.06-.21-11.28-.42-15.71h11.05l.66,8.09h1l.13-.22c3.65-5.83,10.12-9.29,17-9.09,9.09,0,18.83,6.01,18.83,22.84v31.77l-12.81-.05Zm130.16,0v-36.34c0-7.62-.12-12.62-.42-17.04h10.92l.56,10.25h1.08l.1-.3c2.4-6.8,8.1-11.19,14.51-11.19,1.16,0,1.87.09,5.02.26v11.92c-3.37-.17-4.5-.25-5.91-.25-6.49,0-11.41,4.11-12.71,10.72-.23,1.39-.35,2.81-.34,4.22v27.75h-12.82Zm37.45-78.24h12.81v78.24h-12.81v-78.24Zm88.16,78.24v-30.2c0-9.09-3.89-14.16-10.81-14.16-5.1.12-9.57,3.46-11.12,8.32-.49,1.45-.72,2.97-.69,4.5v31.54h-12.76v-37.64c0-6.06-.21-11.28-.42-15.71h11.05l.66,8.13h1l.14-.22c3.65-5.83,10.11-9.29,16.99-9.09,9.09,0,18.85,6.01,18.85,22.84v31.77l-12.89-.09Zm50.15,1.12c-16.98,0-27.53-10.38-27.53-26.97,0-13.86,8.15-28.76,26.08-28.76,16.95,0,22.96,13.99,22.96,25.96.01,1.79-.11,3.58-.38,5.35h-36.42v.47c.38,10.67,9.09,14.47,17.17,14.47,5,.07,9.98-.72,14.72-2.32l1.82,8.51c-5.87,2.3-12.13,3.41-18.43,3.28h.01Zm-2.23-47.24c-9.22,0-12.53,8.58-12.98,13.65v.49h24.78v-.43c0-1.57-.13-6.98-3.69-10.62-2.12-2.11-5.03-3.23-8.02-3.1h-.09Zm46.13,47.26c-5.53.09-11-1.13-15.96-3.57l2.6-9.09c4.16,2.3,8.8,3.59,13.55,3.78,5.81,0,9.09-2.4,9.09-6.58s-2.97-6.05-9.2-8.33c-9.59-3.23-14.64-8.55-14.64-15.41,0-9.71,8.24-16.5,20.05-16.5,4.82-.08,9.6.95,13.97,3.01l-2.6,8.7c-3.45-1.85-7.3-2.85-11.21-2.91-4.87,0-8.02,2.45-8.02,6.24s2.88,5.45,9.76,8c9.85,3.44,14.1,8.24,14.2,16.09,0,10.23-8.28,16.6-21.62,16.6l.05-.04Zm-715.79-1.12h13.87l-24.12-74.23h-16.87l-23.82,74.23h13.26l4.72-16.37h28.06l4.88,16.37Zm-30.24-25.69l6.97-24.14c.78-2.84,1.56-6.01,2.31-9.09.43-1.73.84-3.4,1.3-4.98l.08-.32h.92l.73,2.89c.92,3.65,1.97,7.79,3.14,11.45l7.19,24.17-22.64.03Zm479.35,25.69h13.94l-24.17-74.23h-16.87l-23.79,74.23h13.21l4.72-16.37h28.06l4.89,16.37Zm-30.19-25.69l6.97-24.14c.79-2.84,1.57-6.01,2.32-9.09.43-1.73.84-3.4,1.3-4.98l.09-.32h.91l.74,2.89c.92,3.65,1.96,7.79,3.13,11.45l7.19,24.17-22.65.03Zm-213.76,25.69v-53.38h12.82v53.38h-12.82Zm.69-73.77h11.5v10.95h-11.5v-10.95Zm263.44,73.77v-53.38h12.81v53.38h-12.81Zm.67-73.77h11.5v10.95h-11.5v-10.95Zm90.99,73.77v-53.38h12.81v53.38h-12.81Zm.69-73.77h11.5v10.95h-11.5v-10.95Zm345.73,95.9h-2.28v-.83h5.57v.83h-2.3v6.7h-.99v-6.7Zm10.45,3.39c0-1.05-.12-2.32-.12-3.24-.27.87-.57,1.82-.95,2.86l-1.3,3.65h-.73l-1.3-3.58c-.35-1.06-.65-2.02-.86-2.92,0,.93-.06,2.18-.14,3.32l-.19,3.23h-.93l.53-7.53h1.3l1.3,3.63c.31.93.56,1.75.77,2.6.21-.77.47-1.6.8-2.6l1.3-3.63h1.3l.47,7.53h-.96l-.29-3.31Z"/></svg>